<?xml version="1.0" encoding="utf-8"?>
<!-- Generated by IcoMoon.io -->
<!DOCTYPE svg PUBLIC "-//W3C//DTD SVG 1.1//EN" "http://www.w3.org/Graphics/SVG/1.1/DTD/svg11.dtd">
<svg version="1.1" xmlns="http://www.w3.org/2000/svg" xmlns:xlink="http://www.w3.org/1999/xlink" width="560" height="236" viewBox="0 0 560 236">
<svg id="icon_home" width="20" height="20" viewBox="0 0 20 20" x="0" y="0">
<path fill="#88d3ef" d="M20 11.532l-10-7.762-10 7.762v-3.165l10-7.762 10 7.762zM17.5 11.25v7.5h-5v-5h-5v5h-5v-7.5l7.5-5.625z"></path>
</svg>
<svg id="icon_home2" width="20" height="20" viewBox="0 0 20 20" x="36" y="0">
<path fill="#88d3ef" d="M10 0.625l-10 10 1.875 1.875 1.875-1.875v8.125h5v-3.75h2.5v3.75h5v-8.125l1.875 1.875 1.875-1.875-10-10zM10 8.75c-0.69 0-1.25-0.56-1.25-1.25s0.56-1.25 1.25-1.25c0.69 0 1.25 0.56 1.25 1.25s-0.56 1.25-1.25 1.25z"></path>
</svg>
<svg id="icon_home3" width="20" height="20" viewBox="0 0 20 20" x="72" y="0">
<path fill="#88d3ef" d="M20 11.875l-3.75-3.75v-5.625h-2.5v3.125l-3.75-3.75-10 10v0.625h2.5v6.25h6.25v-3.75h2.5v3.75h6.25v-6.25h2.5z"></path>
</svg>
<svg id="icon_office" width="20" height="20" viewBox="0 0 20 20" x="108" y="0">
<path fill="#88d3ef" d="M0 20h10v-20h-10v20zM6.25 2.5h2.5v2.5h-2.5v-2.5zM6.25 7.5h2.5v2.5h-2.5v-2.5zM6.25 12.5h2.5v2.5h-2.5v-2.5zM1.25 2.5h2.5v2.5h-2.5v-2.5zM1.25 7.5h2.5v2.5h-2.5v-2.5zM1.25 12.5h2.5v2.5h-2.5v-2.5zM11.25 6.25h8.75v1.25h-8.75zM11.25 20h2.5v-5h3.75v5h2.5v-11.25h-8.75z"></path>
</svg>
<svg id="icon_pencil" width="20" height="20" viewBox="0 0 20 20" x="144" y="0">
<path fill="#88d3ef" d="M16.875 0c1.726 0 3.125 1.399 3.125 3.125 0 0.704-0.233 1.353-0.625 1.875l-1.25 1.25-4.375-4.375 1.25-1.25c0.522-0.392 1.171-0.625 1.875-0.625zM1.25 14.375l-1.25 5.625 5.625-1.25 11.563-11.563-4.375-4.375-11.563 11.563zM13.976 7.101l-8.75 8.75-1.077-1.077 8.75-8.75 1.077 1.077z"></path>
</svg>
<svg id="icon_pencil2" width="20" height="20" viewBox="0 0 20 20" x="180" y="0">
<path fill="#88d3ef" d="M7.5 12.5l2.5-1.25 8.75-8.75-1.25-1.25-8.75 8.75-1.25 2.5zM5.65 16.936c-0.618-1.303-1.283-1.968-2.586-2.586l1.935-5.328 2.5-1.522 7.5-7.5h-3.75l-7.5 7.5-3.75 12.5 12.5-3.75 7.5-7.5v-3.75l-7.5 7.5-1.522 2.5z"></path>
</svg>
<svg id="icon_pen" width="20" height="20" viewBox="0 0 20 20" x="216" y="0">
<path fill="#88d3ef" d="M19.886 5.701l-5.587-5.587c-0.182-0.182-0.423-0.141-0.534 0.091l-0.749 1.561 5.219 5.219 1.561-0.749c0.232-0.112 0.273-0.352 0.091-0.534z"></path>
<path fill="#88d3ef" d="M12.019 2.644l-5.144 0.429c-0.342 0.042-0.627 0.115-0.724 0.562-0 0-0 0.001-0 0.001-1.395 6.701-6.15 13.239-6.15 13.239l1.121 1.121 5.312-5.312c-0.117-0.245-0.183-0.519-0.183-0.808 0-1.036 0.839-1.875 1.875-1.875s1.875 0.839 1.875 1.875-0.839 1.875-1.875 1.875c-0.289 0-0.564-0.066-0.808-0.183l-5.312 5.312 1.121 1.121c0 0 6.539-4.755 13.239-6.15 0-0 0.001-0 0.001-0 0.446-0.098 0.519-0.383 0.562-0.724l0.429-5.144-5.337-5.337z"></path>
</svg>
<svg id="icon_blog" width="20" height="20" viewBox="0 0 20 20" x="252" y="0">
<path fill="#88d3ef" d="M7.5 0v1.875c1.435 0 2.826 0.281 4.135 0.834 1.265 0.535 2.402 1.301 3.378 2.278s1.743 2.113 2.278 3.378c0.554 1.309 0.834 2.7 0.834 4.135h1.875c0-6.904-5.596-12.5-12.5-12.5z"></path>
<path fill="#88d3ef" d="M7.5 3.75v1.875c1.836 0 3.563 0.715 4.861 2.014s2.014 3.025 2.014 4.861h1.875c0-4.832-3.918-8.75-8.75-8.75z"></path>
<path fill="#88d3ef" d="M9.375 7.5l-1.25 1.25-4.375 1.25-3.75 8.125 0.496 0.496 4.547-4.547c-0.028-0.103-0.043-0.212-0.043-0.324 0-0.69 0.56-1.25 1.25-1.25s1.25 0.56 1.25 1.25-0.56 1.25-1.25 1.25c-0.112 0-0.22-0.015-0.324-0.043l-4.547 4.547 0.496 0.496 8.125-3.75 1.25-4.375 1.25-1.25-3.125-3.125z"></path>
</svg>
<svg id="icon_paint-format" width="20" height="20" viewBox="0 0 20 20" x="288" y="0">
<path fill="#88d3ef" d="M20 11.25v-7.5h-3.75v-1.25c0-0.688-0.563-1.25-1.25-1.25h-13.75c-0.688 0-1.25 0.563-1.25 1.25v3.75c0 0.688 0.563 1.25 1.25 1.25h13.75c0.688 0 1.25-0.563 1.25-1.25v-1.25h2.5v5h-11.25v2.5h-0.625c-0.345 0-0.625 0.28-0.625 0.625v6.25c0 0.345 0.28 0.625 0.625 0.625h2.5c0.345 0 0.625-0.28 0.625-0.625v-6.25c0-0.345-0.28-0.625-0.625-0.625h-0.625v-1.25h11.25zM15 3.75h-13.75v-1.25h13.75v1.25z"></path>
</svg>
<svg id="icon_image" width="20" height="20" viewBox="0 0 20 20" x="324" y="0">
<path fill="#88d3ef" d="M18.748 2.5c0.001 0.001 0.002 0.001 0.002 0.002v14.996c-0.001 0.001-0.001 0.002-0.002 0.002h-17.496c-0.001-0.001-0.002-0.001-0.002-0.002v-14.996c0.001-0.001 0.001-0.002 0.002-0.002h17.496zM18.75 1.25h-17.5c-0.688 0-1.25 0.563-1.25 1.25v15c0 0.688 0.563 1.25 1.25 1.25h17.5c0.688 0 1.25-0.563 1.25-1.25v-15c0-0.688-0.563-1.25-1.25-1.25v0z"></path>
<path fill="#88d3ef" d="M16.25 5.625c0 1.036-0.839 1.875-1.875 1.875s-1.875-0.839-1.875-1.875 0.839-1.875 1.875-1.875 1.875 0.839 1.875 1.875z"></path>
<path fill="#88d3ef" d="M17.5 16.25h-15v-2.5l4.375-7.5 5 6.25h1.25l4.375-3.75z"></path>
</svg>
<svg id="icon_images" width="23" height="20" viewBox="0 0 23 20" x="360" y="0">
<path fill="#88d3ef" d="M21.25 2.5h-1.25v-1.25c0-0.688-0.563-1.25-1.25-1.25h-17.5c-0.688 0-1.25 0.563-1.25 1.25v15c0 0.688 0.563 1.25 1.25 1.25h1.25v1.25c0 0.688 0.563 1.25 1.25 1.25h17.5c0.688 0 1.25-0.563 1.25-1.25v-15c0-0.688-0.563-1.25-1.25-1.25zM2.5 3.75v12.5h-1.248c-0.001-0.001-0.002-0.001-0.002-0.002v-14.996c0.001-0.001 0.001-0.002 0.002-0.002h17.496c0.001 0.001 0.002 0.001 0.002 0.002v1.248h-15c-0.688 0-1.25 0.563-1.25 1.25v0zM21.25 18.748c-0.001 0.001-0.001 0.002-0.002 0.002h-17.496c-0.001-0.001-0.002-0.001-0.002-0.002v-14.996c0.001-0.001 0.001-0.002 0.002-0.002h17.496c0.001 0.001 0.002 0.001 0.002 0.002v14.995z"></path>
<path fill="#88d3ef" d="M18.75 6.875c0 1.036-0.839 1.875-1.875 1.875s-1.875-0.839-1.875-1.875 0.839-1.875 1.875-1.875 1.875 0.839 1.875 1.875z"></path>
<path fill="#88d3ef" d="M20 17.5h-15v-2.5l4.375-7.5 5 6.25h1.25l4.375-3.75z"></path>
</svg>
<svg id="icon_pacman" width="20" height="20" viewBox="0 0 20 20" x="396" y="0">
<path fill="#88d3ef" d="M18.842 3.492c-1.834-2.138-4.555-3.492-7.592-3.492-5.523 0-10 4.477-10 10s4.477 10 10 10c3.037 0 5.758-1.355 7.592-3.492l-6.342-6.508 6.342-6.508zM13.75 2.356c0.77 0 1.394 0.624 1.394 1.394s-0.624 1.394-1.394 1.394-1.394-0.624-1.394-1.394c0-0.77 0.624-1.394 1.394-1.394z"></path>
</svg>
<svg id="icon_library" width="21" height="20" viewBox="0 0 21 20" x="432" y="0">
<path fill="#88d3ef" d="M20 18.75v-1.25h-1.25v-7.5h1.25v-1.25h-3.75v1.25h1.25v7.5h-3.75v-7.5h1.25v-1.25h-3.75v1.25h1.25v7.5h-3.75v-7.5h1.25v-1.25h-3.75v1.25h1.25v7.5h-3.75v-7.5h1.25v-1.25h-3.75v1.25h1.25v7.5h-1.25v1.25h-1.25v1.25h21.25v-1.25h-1.25z"></path>
<path fill="#88d3ef" d="M10 0h1.25l10 6.25v1.25h-21.25v-1.25l10-6.25z"></path>
</svg>
<svg id="icon_file-text" width="20" height="20" viewBox="0 0 20 20" x="468" y="0">
<path fill="#88d3ef" d="M16.875 0h-15c-1.031 0-1.875 0.844-1.875 1.875v16.25c0 1.031 0.844 1.875 1.875 1.875h15c1.031 0 1.875-0.844 1.875-1.875v-16.25c0-1.031-0.844-1.875-1.875-1.875zM16.25 17.5h-13.75v-15h13.75v15zM5 8.75h8.75v1.25h-8.75zM5 11.25h8.75v1.25h-8.75zM5 13.75h8.75v1.25h-8.75zM5 6.25h8.75v1.25h-8.75z"></path>
</svg>
<svg id="icon_profile" width="20" height="20" viewBox="0 0 20 20" x="504" y="0">
<path fill="#88d3ef" d="M16.875 0h-15c-1.031 0-1.875 0.844-1.875 1.875v16.25c0 1.031 0.844 1.875 1.875 1.875h15c1.031 0 1.875-0.844 1.875-1.875v-16.25c0-1.031-0.844-1.875-1.875-1.875zM16.25 17.5h-13.75v-15h13.75v15zM5 11.25h8.75v1.25h-8.75zM5 13.75h8.75v1.25h-8.75zM6.25 5.625c0-1.036 0.839-1.875 1.875-1.875s1.875 0.839 1.875 1.875c0 1.036-0.839 1.875-1.875 1.875s-1.875-0.839-1.875-1.875zM9.375 7.5h-2.5c-1.031 0-1.875 0.563-1.875 1.25v1.25h6.25v-1.25c0-0.688-0.844-1.25-1.875-1.25z"></path>
</svg>
<svg id="icon_price-tags" width="25" height="20" viewBox="0 0 25 20" x="0" y="36">
<path fill="#88d3ef" d="M24.063 0h-7.5c-0.516 0-1.236 0.298-1.6 0.663l-9.299 9.299c-0.365 0.365-0.365 0.961 0 1.326l8.049 8.049c0.365 0.365 0.961 0.365 1.326 0l9.299-9.299c0.365-0.365 0.663-1.085 0.663-1.6v-7.5c0-0.516-0.422-0.938-0.938-0.938zM19.375 7.5c-1.036 0-1.875-0.839-1.875-1.875s0.839-1.875 1.875-1.875 1.875 0.839 1.875 1.875-0.839 1.875-1.875 1.875z"></path>
<path fill="#88d3ef" d="M2.5 10.625l10.625-10.625h-1.563c-0.516 0-1.236 0.298-1.6 0.663l-9.299 9.299c-0.365 0.365-0.365 0.961 0 1.326l8.049 8.049c0.365 0.365 0.961 0.365 1.326 0l0.587-0.587-8.125-8.125z"></path>
</svg>
<svg id="icon_cart" width="20" height="20" viewBox="0 0 20 20" x="36" y="36">
<path fill="#88d3ef" d="M7.5 18.125c0 1.036-0.839 1.875-1.875 1.875s-1.875-0.839-1.875-1.875c0-1.036 0.839-1.875 1.875-1.875s1.875 0.839 1.875 1.875z"></path>
<path fill="#88d3ef" d="M20 18.125c0 1.036-0.839 1.875-1.875 1.875s-1.875-0.839-1.875-1.875c0-1.036 0.839-1.875 1.875-1.875s1.875 0.839 1.875 1.875z"></path>
<path fill="#88d3ef" d="M20 10v-7.5h-15c0-0.69-0.56-1.25-1.25-1.25h-3.75v1.25h2.5l0.939 8.048c-0.572 0.458-0.939 1.162-0.939 1.952 0 1.381 1.119 2.5 2.5 2.5h15v-1.25h-15c-0.69 0-1.25-0.56-1.25-1.25 0-0.004 0-0.009 0-0.013l16.25-2.487z"></path>
</svg>
<svg id="icon_coin-dollar" width="20" height="20" viewBox="0 0 20 20" x="72" y="36">
<path fill="#88d3ef" d="M9.375 1.25c-5.178 0-9.375 4.197-9.375 9.375s4.197 9.375 9.375 9.375c5.178 0 9.375-4.197 9.375-9.375s-4.197-9.375-9.375-9.375zM9.375 18.125c-4.142 0-7.5-3.358-7.5-7.5s3.358-7.5 7.5-7.5c4.142 0 7.5 3.358 7.5 7.5s-3.358 7.5-7.5 7.5zM10 10v-2.5h2.5v-1.25h-2.5v-1.25h-1.25v1.25h-2.5v5h2.5v2.5h-2.5v1.25h2.5v1.25h1.25v-1.25h2.5l-0-5h-2.5zM8.75 10h-1.25v-2.5h1.25v2.5zM11.25 13.75h-1.25v-2.5h1.25v2.5z"></path>
</svg>
<svg id="icon_address-book" width="20" height="20" viewBox="0 0 20 20" x="108" y="36">
<path fill="#88d3ef" d="M3.75 0v20h15v-20h-15zM11.25 5.006c1.377 0 2.494 1.116 2.494 2.494s-1.116 2.494-2.494 2.494-2.494-1.116-2.494-2.494 1.116-2.494 2.494-2.494v0zM15 15h-7.5v-1.25c0-1.381 1.119-2.5 2.5-2.5v0h2.5c1.381 0 2.5 1.119 2.5 2.5v1.25z"></path>
<path fill="#88d3ef" d="M1.25 1.25h1.875v3.75h-1.875v-3.75z"></path>
<path fill="#88d3ef" d="M1.25 6.25h1.875v3.75h-1.875v-3.75z"></path>
<path fill="#88d3ef" d="M1.25 11.25h1.875v3.75h-1.875v-3.75z"></path>
<path fill="#88d3ef" d="M1.25 16.25h1.875v3.75h-1.875v-3.75z"></path>
</svg>
<svg id="icon_envelop" width="20" height="20" viewBox="0 0 20 20" x="144" y="36">
<path fill="#88d3ef" d="M18.125 2.5h-16.25c-1.031 0-1.875 0.844-1.875 1.875v12.5c0 1.031 0.844 1.875 1.875 1.875h16.25c1.031 0 1.875-0.844 1.875-1.875v-12.5c0-1.031-0.844-1.875-1.875-1.875zM7.788 10.749l-5.288 4.119v-9.798l5.288 5.679zM3.445 5h13.11l-6.555 4.922-6.555-4.922zM7.994 10.971l2.006 2.154 2.006-2.154 4.112 5.279h-12.237l4.112-5.279zM12.212 10.749l5.288-5.679v9.798l-5.288-4.119z"></path>
</svg>
<svg id="icon_compass" width="20" height="20" viewBox="0 0 20 20" x="180" y="36">
<path fill="#88d3ef" d="M10.625 20c-0.045 0-0.090-0.005-0.136-0.015-0.286-0.063-0.49-0.317-0.49-0.61v-9.375h-9.375c-0.293 0-0.547-0.204-0.61-0.49s0.080-0.578 0.346-0.702l18.75-8.75c0.238-0.111 0.52-0.061 0.706 0.124s0.236 0.468 0.124 0.706l-8.75 18.75c-0.104 0.223-0.328 0.361-0.566 0.361zM3.442 8.75h7.183c0.345 0 0.625 0.28 0.625 0.625v7.183l6.832-14.64-14.64 6.832z"></path>
</svg>
<svg id="icon_map2" width="20" height="20" viewBox="0 0 20 20" x="216" y="36">
<path fill="#88d3ef" d="M13.125 3.75l-6.25-2.5-6.875 2.5v15l6.875-2.5 6.25 2.5 6.875-2.5v-15l-6.875 2.5zM7.5 2.846l5 2v12.307l-5-2v-12.307zM1.25 4.626l5-1.818v12.34l-5 1.818v-12.34zM18.75 15.374l-5 1.818v-12.34l5-1.818v12.34z"></path>
</svg>
<svg id="icon_calendar" width="20" height="20" viewBox="0 0 20 20" x="252" y="36">
<path fill="#88d3ef" d="M6.25 7.5h2.5v2.5h-2.5zM10 7.5h2.5v2.5h-2.5zM13.75 7.5h2.5v2.5h-2.5zM2.5 15h2.5v2.5h-2.5zM6.25 15h2.5v2.5h-2.5zM10 15h2.5v2.5h-2.5zM6.25 11.25h2.5v2.5h-2.5zM10 11.25h2.5v2.5h-2.5zM13.75 11.25h2.5v2.5h-2.5zM2.5 11.25h2.5v2.5h-2.5zM16.25 0v1.25h-2.5v-1.25h-8.75v1.25h-2.5v-1.25h-2.5v20h18.75v-20h-2.5zM17.5 18.75h-16.25v-13.75h16.25v13.75z"></path>
</svg>
<svg id="icon_floppy-disk" width="20" height="20" viewBox="0 0 20 20" x="288" y="36">
<path fill="#88d3ef" d="M17.5 0h-17.5v20h20v-17.5l-2.5-2.5zM10 2.5h2.5v5h-2.5v-5zM17.5 17.5h-15v-15h1.25v6.25h11.25v-6.25h1.464l1.036 1.036v13.964z"></path>
</svg>
<svg id="icon_undo2" width="20" height="20" viewBox="0 0 20 20" x="324" y="36">
<path fill="#88d3ef" d="M14.88 20c2.221-4.024 2.595-10.162-6.13-9.958v4.958l-7.5-7.5 7.5-7.5v4.851c10.448-0.272 11.613 9.223 6.13 15.149z"></path>
</svg>
<svg id="icon_redo2" width="20" height="20" viewBox="0 0 20 20" x="360" y="36">
<path fill="#88d3ef" d="M11.25 4.851v-4.851l7.5 7.5-7.5 7.5v-4.958c-8.726-0.205-8.351 5.933-6.13 9.958-5.483-5.926-4.318-15.421 6.13-15.149z"></path>
</svg>
<svg id="icon_bubbles" width="23" height="20" viewBox="0 0 23 20" x="396" y="36">
<path fill="#88d3ef" d="M21.25 17.601c0 0.889 0.508 1.658 1.25 2.035v0.311c-0.208 0.028-0.419 0.043-0.635 0.043-1.328 0-2.526-0.557-3.373-1.45-0.512 0.136-1.055 0.21-1.617 0.21-3.107 0-5.625-2.239-5.625-5s2.518-5 5.625-5c3.107 0 5.625 2.239 5.625 5 0 1.081-0.386 2.082-1.042 2.9-0.133 0.29-0.208 0.612-0.208 0.951zM10 0c5.439 0 9.863 3.528 9.997 7.92-0.961-0.428-2.023-0.655-3.122-0.655-1.866 0-3.629 0.653-4.964 1.839-1.384 1.23-2.146 2.88-2.146 4.645 0 0.873 0.186 1.717 0.542 2.496-0.102 0.002-0.204 0.004-0.307 0.004-0.53 0-1.051-0.034-1.559-0.099-2.148 2.148-4.712 2.533-7.191 2.59v-0.526c1.339-0.656 2.5-1.85 2.5-3.216 0-0.191-0.015-0.378-0.042-0.56-2.262-1.49-3.708-3.765-3.708-6.315 0-4.487 4.477-8.125 10-8.125z"></path>
</svg>
<svg id="icon_bubbles2" width="23" height="20" viewBox="0 0 23 20" x="432" y="36">
<path fill="#88d3ef" d="M9.375 0v0c5.178 0 9.375 3.397 9.375 7.587s-4.197 7.587-9.375 7.587c-0.497 0-0.985-0.032-1.462-0.092-2.014 2.006-4.339 2.365-6.663 2.418v-0.491c1.255-0.612 2.266-1.728 2.266-3.003 0-0.178-0.014-0.352-0.040-0.523-2.12-1.391-3.476-3.515-3.476-5.896 0-4.19 4.197-7.587 9.375-7.587zM19.453 17.006c0 1.093 0.709 2.049 1.797 2.574v0.421c-2.014-0.045-3.863-0.354-5.608-2.073-0.413 0.052-0.836 0.079-1.267 0.079-1.865 0-3.582-0.503-4.953-1.348 2.826-0.010 5.493-0.915 7.516-2.552 1.020-0.825 1.824-1.793 2.391-2.878 0.601-1.15 0.906-2.375 0.906-3.641 0-0.204-0.009-0.407-0.025-0.609 1.417 1.171 2.29 2.766 2.29 4.525 0 2.041-1.175 3.862-3.012 5.054-0.022 0.146-0.034 0.296-0.034 0.449z"></path>
</svg>
<svg id="icon_user" width="20" height="20" viewBox="0 0 20 20" x="468" y="36">
<path fill="#88d3ef" d="M11.25 13.801v-1.031c1.377-0.776 2.5-2.71 2.5-4.645 0-3.107 0-5.625-3.75-5.625s-3.75 2.518-3.75 5.625c0 1.935 1.123 3.869 2.5 4.645v1.031c-4.24 0.347-7.5 2.43-7.5 4.949h17.5c0-2.519-3.26-4.602-7.5-4.949z"></path>
</svg>
<svg id="icon_users" width="23" height="20" viewBox="0 0 23 20" x="504" y="36">
<path fill="#88d3ef" d="M15 15.051v-1.031c1.377-0.776 2.5-2.71 2.5-4.645 0-3.107 0-5.625-3.75-5.625s-3.75 2.518-3.75 5.625c0 1.935 1.123 3.869 2.5 4.645v1.031c-4.24 0.347-7.5 2.43-7.5 4.949h17.5c0-2.519-3.26-4.602-7.5-4.949z"></path>
<path fill="#88d3ef" d="M6.391 15.534c1.080-0.706 2.423-1.243 3.902-1.571-0.294-0.347-0.561-0.735-0.791-1.153-0.594-1.079-0.908-2.267-0.908-3.435 0-1.681 0-3.268 0.598-4.566 0.58-1.26 1.624-2.041 3.11-2.334-0.33-1.494-1.21-2.476-3.551-2.476-3.75 0-3.75 2.518-3.75 5.625 0 1.935 1.123 3.869 2.5 4.645v1.031c-4.24 0.347-7.5 2.43-7.5 4.949h5.449c0.284-0.252 0.598-0.492 0.941-0.716z"></path>
</svg>
<svg id="icon_user-plus" width="20" height="20" viewBox="0 0 20 20" x="0" y="72">
<path fill="#88d3ef" d="M7.5 14.375c0-2.954 1.873-5.478 4.493-6.449 0.318-0.714 0.507-1.507 0.507-2.301 0-3.107 0-5.625-3.75-5.625s-3.75 2.518-3.75 5.625c0 1.935 1.123 3.869 2.5 4.645v1.031c-4.24 0.347-7.5 2.43-7.5 4.949h7.76c-0.169-0.596-0.26-1.225-0.26-1.875z"></path>
<path fill="#88d3ef" d="M14.375 8.75c-3.107 0-5.625 2.518-5.625 5.625s2.518 5.625 5.625 5.625c3.107 0 5.625-2.518 5.625-5.625s-2.518-5.625-5.625-5.625zM17.5 15h-2.5v2.5h-1.25v-2.5h-2.5v-1.25h2.5v-2.5h1.25v2.5h2.5v1.25z"></path>
</svg>
<svg id="icon_user-minus" width="20" height="20" viewBox="0 0 20 20" x="36" y="72">
<path fill="#88d3ef" d="M7.5 14.375c0-2.954 1.873-5.478 4.493-6.449 0.318-0.714 0.507-1.507 0.507-2.301 0-3.107 0-5.625-3.75-5.625s-3.75 2.518-3.75 5.625c0 1.935 1.123 3.869 2.5 4.645v1.031c-4.24 0.347-7.5 2.43-7.5 4.949h7.76c-0.169-0.596-0.26-1.225-0.26-1.875z"></path>
<path fill="#88d3ef" d="M14.375 8.75c-3.107 0-5.625 2.518-5.625 5.625s2.518 5.625 5.625 5.625c3.107 0 5.625-2.518 5.625-5.625s-2.518-5.625-5.625-5.625zM17.5 15h-6.25v-1.25h6.25v1.25z"></path>
</svg>
<svg id="icon_user-check" width="20" height="20" viewBox="0 0 20 20" x="72" y="72">
<path fill="#88d3ef" d="M18.75 11.875l-5.625 5.625-1.875-1.875-1.25 1.25 3.125 3.125 6.875-6.875z"></path>
<path fill="#88d3ef" d="M8.75 15h6.25v-2.249c-1.313-0.766-3.053-1.291-5-1.45v-1.031c1.377-0.776 2.5-2.71 2.5-4.645 0-3.107 0-5.625-3.75-5.625s-3.75 2.518-3.75 5.625c0 1.935 1.123 3.869 2.5 4.645v1.031c-4.24 0.347-7.5 2.43-7.5 4.949h8.75v-1.25z"></path>
</svg>
<svg id="icon_user-tie" width="20" height="20" viewBox="0 0 20 20" x="108" y="72">
<path fill="#88d3ef" d="M6.25 3.75c0-2.071 1.679-3.75 3.75-3.75s3.75 1.679 3.75 3.75c0 2.071-1.679 3.75-3.75 3.75s-3.75-1.679-3.75-3.75zM15.002 8.75h-0.692l-3.889 7.895 1.454-7.27-1.875-1.875-1.875 1.875 1.454 7.27-3.889-7.895h-0.692c-2.499 0-2.499 1.679-2.499 3.75v6.25h15v-6.25c0-2.071 0-3.75-2.498-3.75z"></path>
</svg>
<svg id="icon_search" width="20" height="20" viewBox="0 0 20 20" x="144" y="72">
<path fill="#88d3ef" d="M19.38 17.019l-4.737-4.029c-0.49-0.441-1.013-0.643-1.437-0.624 1.118-1.31 1.794-3.009 1.794-4.867 0-4.142-3.358-7.5-7.5-7.5s-7.5 3.358-7.5 7.5 3.358 7.5 7.5 7.5c1.857 0 3.557-0.676 4.867-1.794-0.020 0.423 0.183 0.947 0.624 1.437l4.029 4.737c0.69 0.767 1.817 0.831 2.504 0.144s0.623-1.814-0.144-2.504zM7.5 12.5c-2.761 0-5-2.239-5-5s2.239-5 5-5 5 2.239 5 5-2.239 5-5 5z"></path>
</svg>
<svg id="icon_zoom-in" width="20" height="20" viewBox="0 0 20 20" x="180" y="72">
<path fill="#88d3ef" d="M19.38 17.019l-4.737-4.029c-0.49-0.441-1.013-0.643-1.437-0.624 1.118-1.31 1.794-3.009 1.794-4.867 0-4.142-3.358-7.5-7.5-7.5s-7.5 3.358-7.5 7.5 3.358 7.5 7.5 7.5c1.857 0 3.557-0.676 4.867-1.794-0.020 0.423 0.183 0.947 0.624 1.437l4.029 4.737c0.69 0.767 1.817 0.831 2.504 0.144s0.623-1.814-0.144-2.504zM7.5 12.5c-2.761 0-5-2.239-5-5s2.239-5 5-5 5 2.239 5 5-2.239 5-5 5zM8.75 3.75h-2.5v2.5h-2.5v2.5h2.5v2.5h2.5v-2.5h2.5v-2.5h-2.5z"></path>
</svg>
<svg id="icon_zoom-out" width="20" height="20" viewBox="0 0 20 20" x="216" y="72">
<path fill="#88d3ef" d="M19.38 17.019l-4.737-4.029c-0.49-0.441-1.013-0.643-1.437-0.624 1.118-1.31 1.794-3.009 1.794-4.867 0-4.142-3.358-7.5-7.5-7.5s-7.5 3.358-7.5 7.5 3.358 7.5 7.5 7.5c1.857 0 3.557-0.676 4.867-1.794-0.020 0.423 0.183 0.947 0.624 1.437l4.029 4.737c0.69 0.767 1.817 0.831 2.504 0.144s0.623-1.814-0.144-2.504zM7.5 12.5c-2.761 0-5-2.239-5-5s2.239-5 5-5 5 2.239 5 5-2.239 5-5 5zM3.75 6.25h7.5v2.5h-7.5z"></path>
</svg>
<svg id="icon_lock" width="20" height="20" viewBox="0 0 20 20" x="252" y="72">
<path fill="#88d3ef" d="M11.563 8.75h-0.313v-3.75c0-2.068-1.682-3.75-3.75-3.75h-2.5c-2.068 0-3.75 1.682-3.75 3.75v3.75h-0.313c-0.516 0-0.938 0.422-0.938 0.938v9.375c0 0.516 0.422 0.938 0.938 0.938h10.625c0.516 0 0.938-0.422 0.938-0.938v-9.375c0-0.516-0.422-0.938-0.938-0.938zM3.75 5c0-0.689 0.561-1.25 1.25-1.25h2.5c0.689 0 1.25 0.561 1.25 1.25v3.75h-5v-3.75z"></path>
</svg>
<svg id="icon_unlocked" width="20" height="20" viewBox="0 0 20 20" x="288" y="72">
<path fill="#88d3ef" d="M15 1.25c2.068 0 3.75 1.682 3.75 3.75v3.75h-2.5v-3.75c0-0.689-0.561-1.25-1.25-1.25h-2.5c-0.689 0-1.25 0.561-1.25 1.25v3.75h0.313c0.516 0 0.938 0.422 0.938 0.938v9.375c0 0.516-0.422 0.938-0.938 0.938h-10.625c-0.516 0-0.938-0.422-0.938-0.938v-9.375c0-0.516 0.422-0.938 0.938-0.938h7.813v-3.75c0-2.068 1.682-3.75 3.75-3.75h2.5z"></path>
</svg>
<svg id="icon_wrench" width="20" height="20" viewBox="0 0 20 20" x="324" y="72">
<path fill="#88d3ef" d="M19.589 15.974l-8.995-7.71c0.419-0.787 0.657-1.685 0.657-2.639 0-3.107-2.518-5.625-5.625-5.625-0.568 0-1.117 0.085-1.634 0.241l3.25 3.25c0.486 0.486 0.486 1.282 0 1.768l-1.982 1.982c-0.486 0.486-1.282 0.486-1.768 0l-3.25-3.25c-0.157 0.517-0.241 1.065-0.241 1.634 0 3.107 2.518 5.625 5.625 5.625 0.954 0 1.852-0.238 2.639-0.657l7.71 8.995c0.447 0.522 1.211 0.551 1.697 0.065l1.982-1.982c0.486-0.486 0.457-1.25-0.065-1.697z"></path>
</svg>
<svg id="icon_equalizer" width="20" height="20" viewBox="0 0 20 20" x="360" y="72">
<path fill="#88d3ef" d="M8.75 2.5v-0.313c0-0.516-0.422-0.938-0.938-0.938h-3.125c-0.516 0-0.938 0.422-0.938 0.938v0.313h-3.75v2.5h3.75v0.313c0 0.516 0.422 0.938 0.938 0.938h3.125c0.516 0 0.938-0.422 0.938-0.938v-0.313h11.25v-2.5h-11.25zM5 5v-2.5h2.5v2.5h-2.5zM16.25 8.438c0-0.516-0.422-0.938-0.938-0.938h-3.125c-0.516 0-0.938 0.422-0.938 0.938v0.313h-11.25v2.5h11.25v0.313c0 0.516 0.422 0.938 0.938 0.938h3.125c0.516 0 0.938-0.422 0.938-0.938v-0.313h3.75v-2.5h-3.75v-0.313zM12.5 11.25v-2.5h2.5v2.5h-2.5zM8.75 14.688c0-0.516-0.422-0.938-0.938-0.938h-3.125c-0.516 0-0.938 0.422-0.938 0.938v0.313h-3.75v2.5h3.75v0.313c0 0.516 0.422 0.938 0.938 0.938h3.125c0.516 0 0.938-0.422 0.938-0.938v-0.313h11.25v-2.5h-11.25v-0.313zM5 17.5v-2.5h2.5v2.5h-2.5z"></path>
</svg>
<svg id="icon_equalizer2" width="20" height="20" viewBox="0 0 20 20" x="396" y="72">
<path fill="#88d3ef" d="M17.5 8.75h0.313c0.516 0 0.938-0.422 0.938-0.938v-3.125c0-0.516-0.422-0.938-0.938-0.938h-0.313v-3.75h-2.5v3.75h-0.313c-0.516 0-0.938 0.422-0.938 0.938v3.125c0 0.516 0.422 0.938 0.938 0.938h0.313v11.25h2.5v-11.25zM15 5h2.5v2.5h-2.5v-2.5zM11.563 16.25c0.516 0 0.938-0.422 0.938-0.938v-3.125c0-0.516-0.422-0.938-0.938-0.938h-0.313v-11.25h-2.5v11.25h-0.313c-0.516 0-0.938 0.422-0.938 0.938v3.125c0 0.516 0.422 0.938 0.938 0.938h0.313v3.75h2.5v-3.75h0.313zM8.75 12.5h2.5v2.5h-2.5v-2.5zM5.313 8.75c0.516 0 0.938-0.422 0.938-0.938v-3.125c0-0.516-0.422-0.938-0.938-0.938h-0.313v-3.75h-2.5v3.75h-0.313c-0.516 0-0.938 0.422-0.938 0.938v3.125c0 0.516 0.422 0.938 0.938 0.938h0.313v11.25h2.5v-11.25h0.313zM2.5 5h2.5v2.5h-2.5v-2.5z"></path>
</svg>
<svg id="icon_cog" width="20" height="20" viewBox="0 0 20 20" x="432" y="72">
<path fill="#88d3ef" d="M18.238 11.919c-1.049-1.817-0.418-4.147 1.409-5.205l-1.965-3.404c-0.562 0.329-1.214 0.518-1.911 0.518-2.1 0-3.803-1.714-3.803-3.828h-3.931c0.005 0.653-0.158 1.314-0.507 1.919-1.049 1.818-3.382 2.436-5.212 1.382l-1.965 3.404c0.566 0.322 1.056 0.793 1.404 1.396 1.048 1.815 0.42 4.139-1.401 5.2l1.965 3.404c0.56-0.326 1.209-0.513 1.902-0.513 2.094 0 3.792 1.703 3.803 3.808h3.931c-0.002-0.646 0.162-1.3 0.507-1.899 1.048-1.815 3.375-2.433 5.203-1.387l1.965-3.404c-0.562-0.322-1.049-0.791-1.395-1.391zM10 14.049c-2.236 0-4.050-1.813-4.050-4.049s1.813-4.049 4.050-4.049c2.236 0 4.049 1.813 4.049 4.049s-1.813 4.049-4.049 4.049z"></path>
</svg>
<svg id="icon_cogs" width="20" height="20" viewBox="0 0 20 20" x="468" y="72">
<path fill="#88d3ef" d="M7.104 14.103l0.807-1.129-0.884-0.884-1.129 0.807c-0.209-0.117-0.434-0.21-0.669-0.277l-0.228-1.369h-1.25l-0.228 1.369c-0.236 0.067-0.46 0.16-0.669 0.277l-1.129-0.807-0.884 0.884 0.807 1.129c-0.117 0.209-0.21 0.434-0.277 0.669l-1.369 0.228v1.25l1.369 0.228c0.067 0.236 0.16 0.46 0.277 0.669l-0.807 1.129 0.884 0.884 1.129-0.807c0.209 0.117 0.434 0.21 0.669 0.277l0.228 1.369h1.25l0.228-1.369c0.236-0.067 0.46-0.16 0.669-0.277l1.129 0.807 0.884-0.884-0.807-1.129c0.117-0.209 0.21-0.434 0.277-0.669l1.369-0.228v-1.25l-1.369-0.228c-0.067-0.236-0.16-0.46-0.277-0.669zM4.375 16.875c-0.69 0-1.25-0.56-1.25-1.25s0.56-1.25 1.25-1.25 1.25 0.56 1.25 1.25-0.56 1.25-1.25 1.25zM20 7.5v-1.25l-1.316-0.239c-0.024-0.157-0.055-0.312-0.092-0.465l1.124-0.725-0.478-1.155-1.307 0.283c-0.082-0.135-0.17-0.266-0.264-0.393l0.762-1.1-0.884-0.884-1.1 0.762c-0.127-0.093-0.258-0.181-0.393-0.264l0.283-1.308-1.155-0.478-0.725 1.124c-0.153-0.037-0.308-0.068-0.465-0.092l-0.239-1.316h-1.25l-0.239 1.316c-0.157 0.024-0.312 0.055-0.465 0.092l-0.725-1.124-1.155 0.478 0.283 1.308c-0.135 0.082-0.266 0.17-0.393 0.264l-1.1-0.762-0.884 0.884 0.762 1.1c-0.093 0.127-0.181 0.258-0.264 0.393l-1.307-0.283-0.478 1.155 1.124 0.725c-0.037 0.153-0.068 0.307-0.092 0.465l-1.316 0.239v1.25l1.316 0.239c0.024 0.157 0.055 0.312 0.092 0.465l-1.124 0.725 0.478 1.155 1.308-0.283c0.082 0.135 0.17 0.266 0.264 0.393l-0.762 1.1 0.884 0.884 1.1-0.762c0.127 0.093 0.258 0.181 0.393 0.264l-0.283 1.307 1.155 0.478 0.725-1.124c0.153 0.037 0.307 0.068 0.465 0.092l0.239 1.316h1.25l0.239-1.316c0.157-0.024 0.312-0.055 0.465-0.092l0.725 1.124 1.155-0.478-0.283-1.307c0.135-0.082 0.266-0.17 0.393-0.264l1.1 0.762 0.884-0.884-0.762-1.1c0.093-0.127 0.181-0.258 0.264-0.393l1.307 0.283 0.478-1.155-1.124-0.725c0.037-0.153 0.068-0.307 0.092-0.465l1.316-0.239zM13.125 9.594c-1.502 0-2.719-1.217-2.719-2.719s1.217-2.719 2.719-2.719 2.719 1.217 2.719 2.719c0 1.502-1.217 2.719-2.719 2.719z"></path>
</svg>
<svg id="icon_bug" width="20" height="20" viewBox="0 0 20 20" x="504" y="72">
<path fill="#88d3ef" d="M20 11.25v-1.25h-3.775c-0.114-1.42-0.621-2.715-1.4-3.755h3.163l1.368-5.473-1.213-0.303-1.132 4.527h-3.412c-0.017-0.014-0.035-0.027-0.053-0.040 0.131-0.381 0.202-0.789 0.202-1.215 0-2.066-1.679-3.74-3.75-3.74s-3.75 1.675-3.75 3.74c0 0.425 0.071 0.834 0.202 1.215-0.018 0.013-0.035 0.027-0.053 0.040h-3.412l-1.132-4.527-1.213 0.303 1.368 5.473h3.163c-0.779 1.039-1.285 2.335-1.4 3.755h-3.775v1.25h3.777c0.074 0.892 0.303 1.735 0.657 2.495h-2.422l-1.368 5.473 1.213 0.303 1.132-4.527h2.194c1.146 1.524 2.879 2.495 4.818 2.495s3.671-0.971 4.818-2.495h2.194l1.132 4.527 1.213-0.303-1.368-5.473h-2.422c0.354-0.761 0.583-1.603 0.657-2.495h3.777z"></path>
</svg>
<svg id="icon_pie-chart" width="20" height="20" viewBox="0 0 20 20" x="540" y="72">
<path fill="#88d3ef" d="M8.75 11.25v-8.75c-4.832 0-8.75 3.918-8.75 8.75s3.917 8.75 8.75 8.75 8.75-3.918 8.75-8.75c0-1.407-0.333-2.736-0.923-3.914l-7.827 3.914zM17.827 4.836c-1.437-2.867-4.402-4.836-7.827-4.836v8.75l7.827-3.914z"></path>
</svg>
<svg id="icon_stats-dots" width="20" height="20" viewBox="0 0 20 20" x="0" y="108">
<path fill="#88d3ef" d="M2.5 17.5h17.5v2.5h-20v-20h2.5zM5.625 16.25c-1.036 0-1.875-0.839-1.875-1.875s0.839-1.875 1.875-1.875c0.055 0 0.11 0.003 0.164 0.008l2.015-3.359c-0.192-0.294-0.304-0.646-0.304-1.023 0-1.036 0.839-1.875 1.875-1.875s1.875 0.839 1.875 1.875c0 0.378-0.112 0.729-0.304 1.023l2.015 3.359c0.054-0.005 0.109-0.008 0.164-0.008 0.042 0 0.083 0.002 0.124 0.004l3.327-5.823c-0.206-0.301-0.326-0.665-0.326-1.057 0-1.036 0.839-1.875 1.875-1.875s1.875 0.839 1.875 1.875c0 1.036-0.839 1.875-1.875 1.875-0.042 0-0.083-0.002-0.124-0.005l-3.327 5.823c0.206 0.301 0.326 0.665 0.326 1.057 0 1.036-0.839 1.875-1.875 1.875s-1.875-0.839-1.875-1.875c0-0.378 0.112-0.729 0.304-1.023l-2.015-3.359c-0.054 0.005-0.109 0.008-0.164 0.008s-0.11-0.003-0.164-0.008l-2.015 3.359c0.192 0.294 0.304 0.646 0.304 1.023 0 1.036-0.839 1.875-1.875 1.875z"></path>
</svg>
<svg id="icon_stats-bars2" width="20" height="20" viewBox="0 0 20 20" x="36" y="108">
<path fill="#88d3ef" d="M5.625 7.5h-3.75c-0.344 0-0.625 0.281-0.625 0.625v11.25c0 0.344 0.281 0.625 0.625 0.625h3.75c0.344 0 0.625-0.281 0.625-0.625v-11.25c0-0.344-0.281-0.625-0.625-0.625zM5.625 18.75h-3.75v-5h3.75v5zM11.875 5h-3.75c-0.344 0-0.625 0.281-0.625 0.625v13.75c0 0.344 0.281 0.625 0.625 0.625h3.75c0.344 0 0.625-0.281 0.625-0.625v-13.75c0-0.344-0.281-0.625-0.625-0.625zM11.875 18.75h-3.75v-6.25h3.75v6.25zM18.125 2.5h-3.75c-0.344 0-0.625 0.281-0.625 0.625v16.25c0 0.344 0.281 0.625 0.625 0.625h3.75c0.344 0 0.625-0.281 0.625-0.625v-16.25c0-0.344-0.281-0.625-0.625-0.625zM18.125 18.75h-3.75v-7.5h3.75v7.5z"></path>
</svg>
<svg id="icon_trophy" width="20" height="20" viewBox="0 0 20 20" x="72" y="108">
<path fill="#88d3ef" d="M16.25 3.75v-2.5h-12.5v2.5h-3.75v2.5c0 2.071 1.679 3.75 3.75 3.75 0.392 0 0.77-0.060 1.125-0.172 0.902 1.289 2.278 2.223 3.875 2.547v3.875h-1.25c-1.381 0-2.5 1.119-2.5 2.5h10c0-1.381-1.119-2.5-2.5-2.5h-1.25v-3.875c1.597-0.324 2.973-1.258 3.875-2.547 0.355 0.112 0.733 0.172 1.125 0.172 2.071 0 3.75-1.679 3.75-3.75v-2.5h-3.75zM3.75 8.516c-1.249 0-2.266-1.016-2.266-2.266v-1.25h2.266v1.25c0 0.785 0.145 1.536 0.409 2.228-0.133 0.024-0.269 0.038-0.409 0.038zM18.516 6.25c0 1.249-1.016 2.266-2.266 2.266-0.14 0-0.276-0.013-0.409-0.038 0.264-0.692 0.409-1.443 0.409-2.228v-1.25h2.266v1.25z"></path>
</svg>
<svg id="icon_gift" width="20" height="20" viewBox="0 0 20 20" x="108" y="108">
<path fill="#88d3ef" d="M15.069 6.25c0.354-0.252 0.694-0.532 1.005-0.843 0.652-0.652 1.089-1.455 1.229-2.26 0.153-0.883-0.072-1.702-0.618-2.248-0.436-0.436-1.026-0.666-1.706-0.666-0.969 0-1.991 0.465-2.802 1.277-1.298 1.298-2.055 3.091-2.462 4.37-0.302-1.285-0.902-3.020-2.071-4.189-0.627-0.627-1.428-0.949-2.184-0.949-0.618 0-1.207 0.215-1.646 0.654-0.976 0.976-0.844 2.691 0.295 3.83 0.406 0.406 0.881 0.743 1.381 1.024h-4.239v5h1.25v8.75h15v-8.75h1.25v-5h-3.681zM13.17 2.504c0.541-0.541 1.217-0.865 1.808-0.865 0.209 0 0.502 0.044 0.712 0.254 0.508 0.508 0.223 1.686-0.611 2.519-0.858 0.858-2.013 1.449-3.016 1.837h-0.99c0.363-1.124 1.017-2.665 2.097-3.746zM4.569 3.142c-0.014-0.178-0.001-0.513 0.238-0.752 0.2-0.2 0.465-0.242 0.651-0.242v0c0.415 0 0.849 0.196 1.19 0.537 0.662 0.662 1.206 1.714 1.576 3.044 0.010 0.036 0.020 0.072 0.029 0.107-0.035-0.009-0.071-0.019-0.107-0.029-1.33-0.369-2.383-0.914-3.044-1.576-0.309-0.309-0.503-0.706-0.533-1.090zM8.75 18.75h-5v-8.125h5v8.125zM8.75 10h-6.25v-2.5h6.25v2.5zM16.25 18.75h-5v-8.125h5v8.125zM17.5 10h-6.25v-2.5h6.25v2.5z"></path>
</svg>
<svg id="icon_glass" width="20" height="20" viewBox="0 0 20 20" x="144" y="108">
<path fill="#88d3ef" d="M15.191 0.329c-0.109-0.203-0.32-0.329-0.551-0.329h-9.281c-0.23 0-0.442 0.126-0.551 0.329-0.693 1.289-1.059 2.797-1.059 4.358 0 2.059 0.632 4.001 1.78 5.468 0.887 1.134 2.002 1.886 3.22 2.191v6.404h-1.875c-0.345 0-0.625 0.28-0.625 0.625s0.28 0.625 0.625 0.625h6.25c0.345 0 0.625-0.28 0.625-0.625s-0.28-0.625-0.625-0.625h-1.875v-6.404c1.218-0.305 2.332-1.057 3.22-2.191 1.148-1.467 1.78-3.409 1.78-5.468 0-1.562-0.366-3.069-1.059-4.358zM5.744 1.25h8.512c0.488 1.033 0.744 2.214 0.744 3.438 0 0.105-0.002 0.209-0.006 0.313h-9.988c-0.004-0.104-0.006-0.208-0.006-0.313-0-1.224 0.256-2.404 0.744-3.438z"></path>
</svg>
<svg id="icon_glass2" width="20" height="20" viewBox="0 0 20 20" x="180" y="108">
<path fill="#88d3ef" d="M17.366 3.511c0.148-0.188 0.175-0.444 0.071-0.659s-0.323-0.352-0.562-0.352h-13.75c-0.239 0-0.458 0.137-0.562 0.352s-0.077 0.471 0.071 0.659l6.116 7.785v7.454h-1.875c-0.345 0-0.625 0.28-0.625 0.625s0.28 0.625 0.625 0.625h6.25c0.345 0 0.625-0.28 0.625-0.625s-0.28-0.625-0.625-0.625h-1.875v-7.454l6.116-7.785zM15.589 3.75l-1.964 2.5h-7.25l-1.964-2.5h11.178z"></path>
</svg>
<svg id="icon_mug" width="20" height="20" viewBox="0 0 20 20" x="216" y="108">
<path fill="#88d3ef" d="M18.75 6.25h-3.75v-1.875c0-1.726-3.358-3.125-7.5-3.125s-7.5 1.399-7.5 3.125v12.5c0 1.726 3.358 3.125 7.5 3.125s7.5-1.399 7.5-3.125v-1.875h3.75c0.69 0 1.25-0.56 1.25-1.25v-6.25c0-0.69-0.56-1.25-1.25-1.25zM3.439 5.047c-0.723-0.238-1.16-0.493-1.395-0.672 0.234-0.179 0.672-0.434 1.395-0.672 1.132-0.373 2.574-0.578 4.061-0.578s2.93 0.205 4.061 0.578c0.723 0.238 1.16 0.493 1.395 0.672-0.234 0.179-0.672 0.434-1.395 0.672-1.132 0.373-2.574 0.578-4.061 0.578s-2.93-0.205-4.061-0.578zM17.5 12.5h-2.5v-3.75h2.5v3.75z"></path>
</svg>
<svg id="icon_spoon-knife" width="20" height="20" viewBox="0 0 20 20" x="252" y="108">
<path fill="#88d3ef" d="M4.375 0c-2.071 0-3.75 1.959-3.75 4.375 0 2.069 1.231 3.802 2.885 4.258l-0.621 10.12c-0.042 0.686 0.486 1.248 1.173 1.248h0.625c0.688 0 1.216-0.561 1.173-1.248l-0.621-10.12c1.654-0.456 2.885-2.189 2.885-4.258 0-2.416-1.679-4.375-3.75-4.375zM16.979 0l-1.042 6.25h-0.781l-0.521-6.25h-0.521l-0.521 6.25h-0.781l-1.042-6.25h-0.521v8.125c0 0.345 0.28 0.625 0.625 0.625h1.628l-0.614 10.002c-0.042 0.686 0.486 1.248 1.173 1.248h0.625c0.688 0 1.216-0.561 1.173-1.248l-0.614-10.002h1.628c0.345 0 0.625-0.28 0.625-0.625v-8.125h-0.521z"></path>
</svg>
<svg id="icon_leaf" width="20" height="20" viewBox="0 0 20 20" x="288" y="108">
<path fill="#88d3ef" d="M19.752 2.627c-2.163-1.639-5.492-2.618-8.904-2.618-4.221 0-7.661 1.474-9.437 4.043-0.834 1.207-1.296 2.636-1.371 4.248-0.067 1.435 0.174 3.022 0.716 4.729 1.853-5.554 7.028-9.904 12.993-9.904 0 0-5.583 1.469-9.092 6.019-0.002 0.003-0.049 0.060-0.129 0.17-0.705 0.943-1.319 2.015-1.779 3.229-0.779 1.852-1.5 4.394-1.5 7.457h2.5c0 0-0.379-2.387 0.28-5.133 1.092 0.148 2.068 0.221 2.946 0.221 2.298 0 3.933-0.497 5.144-1.565 1.085-0.957 1.684-2.242 2.317-3.603 0.967-2.078 2.064-4.434 5.247-6.253 0.182-0.104 0.3-0.293 0.314-0.502s-0.079-0.412-0.246-0.539z"></path>
</svg>
<svg id="icon_rocket" width="20" height="20" viewBox="0 0 20 20" x="324" y="108">
<path fill="#88d3ef" d="M13.75 1.25l-6.25 6.25h-3.75l-3.75 5c0 0 3.973-1.106 6.29-0.588l-6.29 8.088 8.24-6.409c1.149 2.63-0.74 6.409-0.74 6.409l5-3.75v-3.75l6.25-6.25 1.25-6.25-6.25 1.25z"></path>
</svg>
<svg id="icon_fire" width="20" height="20" viewBox="0 0 20 20" x="360" y="108">
<path fill="#88d3ef" d="M6.27 20c-1.333-2.774-0.623-4.363 0.401-5.86 1.122-1.64 1.411-3.263 1.411-3.263s0.882 1.146 0.529 2.94c1.558-1.734 1.852-4.498 1.617-5.556 3.522 2.461 5.027 7.79 2.998 11.74 10.789-6.104 2.684-15.238 1.273-16.267 0.47 1.029 0.56 2.771-0.391 3.616-1.608-6.099-5.585-7.349-5.585-7.349 0.47 3.145-1.705 6.585-3.803 9.155-0.074-1.254-0.152-2.12-0.812-3.32-0.148 2.278-1.889 4.136-2.361 6.419-0.639 3.092 0.478 5.355 4.722 7.747z"></path>
</svg>
<svg id="icon_lab" width="20" height="20" viewBox="0 0 20 20" x="396" y="108">
<path fill="#88d3ef" d="M18.678 15.713l-6.178-10.293v-4.169h0.625c0.344 0 0.625-0.281 0.625-0.625s-0.281-0.625-0.625-0.625h-6.25c-0.344 0-0.625 0.281-0.625 0.625s0.281 0.625 0.625 0.625h0.625v4.169l-6.178 10.293c-1.415 2.358-0.323 4.287 2.428 4.287h12.5c2.75 0 3.842-1.929 2.428-4.287zM4.708 12.5l4.042-6.737v-4.513h2.5v4.513l4.042 6.737h-10.584z"></path>
</svg>
<svg id="icon_bin" width="20" height="20" viewBox="0 0 20 20" x="432" y="108">
<path fill="#88d3ef" d="M2.5 6.25v12.5c0 0.688 0.563 1.25 1.25 1.25h11.25c0.688 0 1.25-0.563 1.25-1.25v-12.5h-13.75zM6.25 17.5h-1.25v-8.75h1.25v8.75zM8.75 17.5h-1.25v-8.75h1.25v8.75zM11.25 17.5h-1.25v-8.75h1.25v8.75zM13.75 17.5h-1.25v-8.75h1.25v8.75z"></path>
<path fill="#88d3ef" d="M16.563 2.5h-4.063v-1.563c0-0.516-0.422-0.938-0.938-0.938h-4.375c-0.516 0-0.938 0.422-0.938 0.938v1.563h-4.063c-0.516 0-0.938 0.422-0.938 0.938v1.563h16.25v-1.563c0-0.516-0.422-0.938-0.938-0.938zM11.25 2.5h-3.75v-1.234h3.75v1.234z"></path>
</svg>
<svg id="icon_bin2" width="20" height="20" viewBox="0 0 20 20" x="468" y="108">
<path fill="#88d3ef" d="M3.75 20h12.5l1.25-13.75h-15zM12.5 2.5v-2.5h-5v2.5h-6.25v3.75l1.25-1.25h15l1.25 1.25v-3.75h-6.25zM11.25 2.5h-2.5v-1.25h2.5v1.25z"></path>
</svg>
<svg id="icon_briefcase" width="20" height="20" viewBox="0 0 20 20" x="504" y="108">
<path fill="#88d3ef" d="M18.75 5h-5v-1.25c0-0.688-0.563-1.25-1.25-1.25h-5c-0.688 0-1.25 0.563-1.25 1.25v1.25h-5c-0.688 0-1.25 0.563-1.25 1.25v11.25c0 0.688 0.562 1.25 1.25 1.25h17.5c0.688 0 1.25-0.562 1.25-1.25v-11.25c0-0.688-0.563-1.25-1.25-1.25zM7.5 3.752c0.001-0.001 0.001-0.002 0.002-0.002h4.996c0.001 0.001 0.002 0.001 0.002 0.002v1.248h-5v-1.248zM18.75 10h-2.5v1.875c0 0.344-0.281 0.625-0.625 0.625h-1.25c-0.344 0-0.625-0.281-0.625-0.625v-1.875h-7.5v1.875c0 0.344-0.281 0.625-0.625 0.625h-1.25c-0.344 0-0.625-0.281-0.625-0.625v-1.875h-2.5v-1.25h17.5v1.25z"></path>
</svg>
<svg id="icon_airplane" width="20" height="20" viewBox="0 0 20 20" x="540" y="108">
<path fill="#88d3ef" d="M15 12.499l-3.571-3.571 8.571-6.429-2.5-2.5-10.713 4.286-3.373-3.373c-0.972-0.972-2.33-1.205-3.018-0.518s-0.454 2.045 0.518 3.018l3.373 3.373-4.286 10.714 2.5 2.5 6.429-8.572 3.571 3.571v5h2.5l1.25-3.75 3.75-1.25v-2.5l-5 0z"></path>
</svg>
<svg id="icon_truck" width="20" height="20" viewBox="0 0 20 20" x="0" y="144">
<path fill="#88d3ef" d="M20 11.25l-2.5-5h-3.75v-2.5c0-0.688-0.563-1.25-1.25-1.25h-11.25c-0.688 0-1.25 0.563-1.25 1.25v10l1.25 1.25h1.585c-0.213 0.368-0.335 0.794-0.335 1.25 0 1.381 1.119 2.5 2.5 2.5s2.5-1.119 2.5-2.5c0-0.456-0.122-0.882-0.335-1.25h6.921c-0.213 0.368-0.335 0.794-0.335 1.25 0 1.381 1.119 2.5 2.5 2.5s2.5-1.119 2.5-2.5c0-0.456-0.122-0.882-0.335-1.25h1.585v-3.75zM13.75 11.25v-3.75h2.591l1.875 3.75h-4.466z"></path>
</svg>
<svg id="icon_shield" width="20" height="20" viewBox="0 0 20 20" x="36" y="144">
<path fill="#88d3ef" d="M18.75 0l-8.75 2.5-8.75-2.5c0 0-0.088 1.010 0 2.5l8.75 2.736 8.75-2.736c0.088-1.49 0-2.5 0-2.5zM1.41 3.811c0.468 4.896 2.217 13.13 8.59 16.189 6.373-3.060 8.122-11.293 8.59-16.189l-8.59 3.23-8.59-3.23z"></path>
</svg>
<svg id="icon_power" width="20" height="20" viewBox="0 0 20 20" x="72" y="144">
<path fill="#88d3ef" d="M7.5 0l-7.5 10h7.5l-5 10 17.5-12.5h-10l7.5-7.5z"></path>
</svg>
<svg id="icon_switch" width="20" height="20" viewBox="0 0 20 20" x="108" y="144">
<path fill="#88d3ef" d="M12.5 2.863v2.655c0.707 0.309 1.357 0.75 1.919 1.312 1.181 1.18 1.831 2.75 1.831 4.419s-0.65 3.239-1.831 4.419c-1.18 1.18-2.75 1.831-4.419 1.831s-3.239-0.65-4.419-1.831c-1.18-1.18-1.831-2.75-1.831-4.419s0.65-3.239 1.831-4.419c0.562-0.562 1.212-1.003 1.919-1.312v-2.655c-3.614 1.076-6.25 4.423-6.25 8.387 0 4.832 3.918 8.75 8.75 8.75s8.75-3.918 8.75-8.75c0-3.964-2.636-7.311-6.25-8.387zM8.75 0h2.5v10h-2.5z"></path>
</svg>
<svg id="icon_list-numbered" width="20" height="20" viewBox="0 0 20 20" x="144" y="144">
<path fill="#88d3ef" d="M7.5 16.25h12.5v2.5h-12.5zM7.5 8.75h12.5v2.5h-12.5zM7.5 1.25h12.5v2.5h-12.5zM3.75 0v5h-1.25v-3.75h-1.25v-1.25zM2.5 10.273v0.977h2.5v1.25h-3.75v-2.852l2.5-1.172v-0.977h-2.5v-1.25h3.75v2.852zM5 13.75v6.25h-3.75v-1.25h2.5v-1.25h-2.5v-1.25h2.5v-1.25h-2.5v-1.25z"></path>
</svg>
<svg id="icon_list" width="20" height="20" viewBox="0 0 20 20" x="180" y="144">
<path fill="#88d3ef" d="M0 0h5v5h-5zM7.5 1.25h12.5v2.5h-12.5zM0 7.5h5v5h-5zM7.5 8.75h12.5v2.5h-12.5zM0 15h5v5h-5zM7.5 16.25h12.5v2.5h-12.5z"></path>
</svg>
<svg id="icon_list2" width="20" height="20" viewBox="0 0 20 20" x="216" y="144">
<path fill="#88d3ef" d="M7.5 1.25h12.5v2.5h-12.5v-2.5zM7.5 8.75h12.5v2.5h-12.5v-2.5zM7.5 16.25h12.5v2.5h-12.5v-2.5zM0 2.5c0-1.381 1.119-2.5 2.5-2.5s2.5 1.119 2.5 2.5c0 1.381-1.119 2.5-2.5 2.5s-2.5-1.119-2.5-2.5zM0 10c0-1.381 1.119-2.5 2.5-2.5s2.5 1.119 2.5 2.5c0 1.381-1.119 2.5-2.5 2.5s-2.5-1.119-2.5-2.5zM0 17.5c0-1.381 1.119-2.5 2.5-2.5s2.5 1.119 2.5 2.5c0 1.381-1.119 2.5-2.5 2.5s-2.5-1.119-2.5-2.5z"></path>
</svg>
<svg id="icon_tree" width="20" height="20" viewBox="0 0 20 20" x="252" y="144">
<path fill="#88d3ef" d="M19.063 15h-0.313v-4.063c0-1.206-0.981-2.188-2.188-2.188h-5.313v-2.5h0.313c0.516 0 0.938-0.422 0.938-0.938v-3.125c0-0.516-0.422-0.938-0.938-0.938h-3.125c-0.516 0-0.938 0.422-0.938 0.938v3.125c0 0.516 0.422 0.938 0.938 0.938h0.313v2.5h-5.313c-1.206 0-2.188 0.981-2.188 2.188v4.063h-0.313c-0.516 0-0.938 0.422-0.938 0.938v3.125c0 0.516 0.422 0.938 0.938 0.938h3.125c0.516 0 0.938-0.422 0.938-0.938v-3.125c0-0.516-0.422-0.938-0.938-0.938h-0.313v-3.75h5v3.75h-0.313c-0.516 0-0.938 0.422-0.938 0.938v3.125c0 0.516 0.422 0.938 0.938 0.938h3.125c0.516 0 0.938-0.422 0.938-0.938v-3.125c0-0.516-0.422-0.938-0.938-0.938h-0.313v-3.75h5v3.75h-0.313c-0.516 0-0.938 0.422-0.938 0.938v3.125c0 0.516 0.422 0.938 0.938 0.938h3.125c0.516 0 0.938-0.422 0.938-0.938v-3.125c0-0.516-0.422-0.938-0.938-0.938zM3.75 18.75h-2.5v-2.5h2.5v2.5zM11.25 18.75h-2.5v-2.5h2.5v2.5zM8.75 5v-2.5h2.5v2.5h-2.5zM18.75 18.75h-2.5v-2.5h2.5v2.5z"></path>
</svg>
<svg id="icon_menu" width="20" height="20" viewBox="0 0 20 20" x="288" y="144">
<path fill="#88d3ef" d="M1.25 3.75h17.5v3.75h-17.5zM1.25 8.75h17.5v3.75h-17.5zM1.25 13.75h17.5v3.75h-17.5z"></path>
</svg>
<svg id="icon_menu2" width="28" height="20" viewBox="0 0 28 20" x="324" y="144">
<path fill="#88d3ef" d="M0 3.75h17.5v3.75h-17.5v-3.75zM0 8.75h17.5v3.75h-17.5v-3.75zM0 13.75h17.5v3.75h-17.5v-3.75z"></path>
<path fill="#88d3ef" d="M19.375 11.25l3.75 3.75 3.75-3.75z"></path>
<path fill="#88d3ef" d="M26.875 10l-3.75-3.75-3.75 3.75z"></path>
</svg>
<svg id="icon_upload2" width="20" height="20" viewBox="0 0 20 20" x="360" y="144">
<path fill="#88d3ef" d="M0 17.5h20v1.25h-20zM20 15v1.25h-20v-1.25l2.5-5h5v2.5h5v-2.5h5zM4.375 6.25l5.625-5.625 5.625 5.625h-4.375v5h-2.5v-5z"></path>
</svg>
<svg id="icon_download3" width="20" height="20" viewBox="0 0 20 20" x="396" y="144">
<path fill="#88d3ef" d="M14.375 8.75l-5 5-5-5h3.125v-7.5h3.75v7.5zM9.375 13.75h-9.375v5h18.75v-5h-9.375zM17.5 16.25h-2.5v-1.25h2.5v1.25z"></path>
</svg>
<svg id="icon_upload3" width="20" height="20" viewBox="0 0 20 20" x="432" y="144">
<path fill="#88d3ef" d="M9.375 13.75h-9.375v5h18.75v-5h-9.375zM17.5 16.25h-2.5v-1.25h2.5v1.25zM4.375 6.25l5-5 5 5h-3.125v6.25h-3.75v-6.25z"></path>
</svg>
<svg id="icon_sphere" width="20" height="20" viewBox="0 0 20 20" x="468" y="144">
<path fill="#88d3ef" d="M9.375 1.25c-5.178 0-9.375 4.197-9.375 9.375s4.197 9.375 9.375 9.375c5.178 0 9.375-4.197 9.375-9.375s-4.197-9.375-9.375-9.375zM14.679 13.75c0.168-0.79 0.273-1.629 0.308-2.5h2.489c-0.065 0.863-0.266 1.701-0.599 2.5h-2.198zM4.071 7.5c-0.168 0.79-0.273 1.629-0.308 2.5h-2.489c0.065-0.863 0.266-1.701 0.599-2.5h2.198zM13.399 7.5c0.188 0.8 0.301 1.638 0.337 2.5h-3.737v-2.5h3.399zM10 6.25v-3.659c0.285 0.083 0.567 0.222 0.844 0.417 0.519 0.366 1.016 0.93 1.436 1.631 0.291 0.484 0.542 1.024 0.752 1.611h-3.033zM6.469 4.639c0.42-0.701 0.917-1.265 1.436-1.631 0.277-0.195 0.559-0.334 0.844-0.417v3.659h-3.033c0.21-0.587 0.461-1.127 0.752-1.611zM8.75 7.5v2.5h-3.737c0.037-0.862 0.15-1.7 0.337-2.5h3.399zM1.873 13.75c-0.333-0.799-0.534-1.637-0.599-2.5h2.489c0.034 0.871 0.14 1.71 0.308 2.5h-2.198zM5.013 11.25h3.737v2.5h-3.399c-0.188-0.8-0.301-1.638-0.337-2.5zM8.75 15v3.659c-0.285-0.083-0.567-0.222-0.844-0.417-0.519-0.366-1.016-0.93-1.436-1.631-0.291-0.484-0.542-1.024-0.752-1.611h3.033zM12.281 16.611c-0.42 0.701-0.917 1.265-1.436 1.631-0.277 0.195-0.559 0.334-0.844 0.417v-3.659h3.033c-0.21 0.587-0.461 1.127-0.752 1.611zM10 13.75v-2.5h3.737c-0.037 0.862-0.15 1.7-0.337 2.5h-3.399zM14.987 10c-0.034-0.871-0.14-1.71-0.308-2.5h2.198c0.333 0.799 0.534 1.637 0.599 2.5h-2.489zM16.224 6.25h-1.873c-0.364-1.148-0.867-2.154-1.471-2.958 0.831 0.397 1.583 0.93 2.241 1.587 0.42 0.419 0.788 0.878 1.104 1.37zM3.63 4.88c0.657-0.657 1.41-1.19 2.241-1.587-0.604 0.803-1.107 1.81-1.471 2.958h-1.873c0.315-0.493 0.684-0.951 1.104-1.37zM2.526 15h1.873c0.364 1.148 0.867 2.154 1.471 2.958-0.831-0.397-1.583-0.93-2.241-1.587-0.42-0.419-0.788-0.878-1.104-1.37zM15.12 16.37c-0.657 0.657-1.41 1.19-2.241 1.587 0.604-0.803 1.107-1.81 1.471-2.958h1.873c-0.315 0.493-0.684 0.951-1.104 1.37z"></path>
</svg>
<svg id="icon_flag" width="20" height="20" viewBox="0 0 20 20" x="504" y="144">
<path fill="#88d3ef" d="M0 0h2.5v20h-2.5v-20z"></path>
<path fill="#88d3ef" d="M16.25 12.559c1.614 0 3.019-0.39 3.75-0.967v-10c-0.731 0.577-2.136 0.967-3.75 0.967s-3.019-0.39-3.75-0.967v10c0.731 0.576 2.136 0.967 3.75 0.967z"></path>
<path fill="#88d3ef" d="M11.875 0.635c-0.916-0.389-2.256-0.635-3.75-0.635-1.883 0-3.522 0.39-4.375 0.967v10c0.853-0.577 2.492-0.967 4.375-0.967 1.494 0 2.834 0.246 3.75 0.635v-10z"></path>
</svg>
<svg id="icon_attachment" width="20" height="20" viewBox="0 0 20 20" x="540" y="144">
<path fill="#88d3ef" d="M13.005 6.388l-1.269-1.268-6.344 6.343c-1.051 1.051-1.051 2.755 0 3.806s2.755 1.051 3.806 0l7.613-7.611c1.752-1.751 1.752-4.591 0-6.342s-4.592-1.752-6.343 0l-7.993 7.992c-0.006 0.006-0.012 0.011-0.017 0.017-2.443 2.443-2.443 6.403 0 8.846s6.404 2.442 8.847 0c0.005-0.005 0.010-0.011 0.016-0.017l0.001 0.001 5.456-5.455-1.269-1.268-5.456 5.454c-0.006 0.005-0.011 0.011-0.017 0.016-1.74 1.739-4.57 1.739-6.31 0s-1.739-4.569 0-6.308c0.006-0.006 0.012-0.011 0.017-0.017l-0.001-0.001 7.994-7.992c1.049-1.050 2.757-1.050 3.806 0s1.049 2.757 0 3.805l-7.613 7.611c-0.35 0.35-0.919 0.35-1.269 0s-0.349-0.919 0-1.268l6.344-6.343z"></path>
</svg>
<svg id="icon_bookmark" width="20" height="20" viewBox="0 0 20 20" x="0" y="180">
<path fill="#88d3ef" d="M3.75 0v20l6.25-6.25 6.25 6.25v-20z"></path>
</svg>
<svg id="icon_bookmarks" width="20" height="20" viewBox="0 0 20 20" x="36" y="180">
<path fill="#88d3ef" d="M5 2.5v17.5l6.25-6.25 6.25 6.25v-17.5zM15 0h-12.5v17.5l1.25-1.25v-15h11.25z"></path>
</svg>
<svg id="icon_star-empty" width="20" height="20" viewBox="0 0 20 20" x="72" y="180">
<path fill="#88d3ef" d="M20 7.755l-6.91-1.004-3.090-6.261-3.090 6.261-6.91 1.004 5 4.874-1.18 6.882 6.18-3.249 6.18 3.249-1.18-6.882 5-4.874zM10 14.717l-4.364 2.295 0.834-4.86-3.531-3.442 4.88-0.709 2.182-4.422 2.182 4.422 4.88 0.709-3.531 3.442 0.834 4.86-4.364-2.295z"></path>
</svg>
<svg id="icon_star-half" width="20" height="20" viewBox="0 0 20 20" x="108" y="180">
<path fill="#88d3ef" d="M20 7.755l-6.91-1.004-3.090-6.261-3.090 6.261-6.91 1.004 5 4.874-1.18 6.882 6.18-3.249 6.18 3.249-1.18-6.882 5-4.874zM10 14.717l-0.018 0.010 0.018-11.148 2.182 4.422 4.88 0.709-3.531 3.442 0.834 4.86-4.364-2.295z"></path>
</svg>
<svg id="icon_star-full" width="20" height="20" viewBox="0 0 20 20" x="144" y="180">
<path fill="#88d3ef" d="M20 7.755l-6.91-1.004-3.090-6.261-3.090 6.261-6.91 1.004 5 4.874-1.18 6.882 6.18-3.249 6.18 3.249-1.18-6.882 5-4.874z"></path>
</svg>
<svg id="icon_man" width="20" height="20" viewBox="0 0 20 20" x="180" y="180">
<path fill="#88d3ef" d="M11.25 1.875c0 1.036-0.839 1.875-1.875 1.875s-1.875-0.839-1.875-1.875c0-1.036 0.839-1.875 1.875-1.875s1.875 0.839 1.875 1.875z"></path>
<path fill="#88d3ef" d="M11.25 5h-3.75c-0.69 0-1.25 0.56-1.25 1.25v6.25h1.25v7.5h1.563v-7.5h0.625v7.5h1.563v-7.5h1.25v-6.25c0-0.69-0.56-1.25-1.25-1.25z"></path>
</svg>
<svg id="icon_man-woman" width="20" height="20" viewBox="0 0 20 20" x="216" y="180">
<path fill="#88d3ef" d="M5 1.875c0 1.036-0.839 1.875-1.875 1.875s-1.875-0.839-1.875-1.875c0-1.036 0.839-1.875 1.875-1.875s1.875 0.839 1.875 1.875z"></path>
<path fill="#88d3ef" d="M16.25 1.875c0 1.036-0.839 1.875-1.875 1.875s-1.875-0.839-1.875-1.875c0-1.036 0.839-1.875 1.875-1.875s1.875 0.839 1.875 1.875z"></path>
<path fill="#88d3ef" d="M5 5h-3.75c-0.69 0-1.25 0.56-1.25 1.25v6.25h1.25v7.5h1.563v-7.5h0.625v7.5h1.563v-7.5h1.25v-6.25c0-0.69-0.56-1.25-1.25-1.25z"></path>
<path fill="#88d3ef" d="M19.043 10l0.957-0.693-2.603-4.026c-0.116-0.175-0.312-0.281-0.522-0.281h-5c-0.21 0-0.406 0.106-0.522 0.281l-2.603 4.026 0.957 0.693 2.161-2.805 0.751 1.753-2.619 4.802h2.396l0.417 6.25h1.25v-6.25h0.625v6.25h1.25l0.417-6.25h2.396l-2.619-4.802 0.751-1.753 2.161 2.805z"></path>
</svg>
<svg id="icon_happy2" width="20" height="20" viewBox="0 0 20 20" x="252" y="180">
<path fill="#88d3ef" d="M10 0c-5.523 0-10 4.477-10 10s4.477 10 10 10 10-4.477 10-10-4.477-10-10-10zM13.75 5c0.69 0 1.25 0.839 1.25 1.875s-0.56 1.875-1.25 1.875-1.25-0.839-1.25-1.875 0.56-1.875 1.25-1.875zM6.25 5c0.69 0 1.25 0.839 1.25 1.875s-0.56 1.875-1.25 1.875-1.25-0.839-1.25-1.875 0.56-1.875 1.25-1.875zM10 17.5c-3.259 0-5.965-2.732-6.25-6.217 1.831 1.057 3.985 1.661 6.25 1.661s4.419-0.602 6.25-1.659c-0.285 3.485-2.991 6.214-6.25 6.214z"></path>
</svg>
<svg id="icon_warning" width="20" height="20" viewBox="0 0 20 20" x="288" y="180">
<path fill="#88d3ef" d="M10 1.812l8.381 16.704h-16.762l8.381-16.704zM10 0c-0.431 0-0.862 0.291-1.189 0.872l-8.537 17.014c-0.654 1.163-0.098 2.114 1.236 2.114h16.979c1.334 0 1.89-0.951 1.236-2.114h0l-8.537-17.014c-0.327-0.581-0.758-0.872-1.189-0.872v0z"></path>
<path fill="#88d3ef" d="M11.25 16.25c0 0.69-0.56 1.25-1.25 1.25s-1.25-0.56-1.25-1.25c0-0.69 0.56-1.25 1.25-1.25s1.25 0.56 1.25 1.25z"></path>
<path fill="#88d3ef" d="M10 13.75c-0.69 0-1.25-0.56-1.25-1.25v-3.75c0-0.69 0.56-1.25 1.25-1.25s1.25 0.56 1.25 1.25v3.75c0 0.69-0.56 1.25-1.25 1.25z"></path>
</svg>
<svg id="icon_plus" width="20" height="20" viewBox="0 0 20 20" x="324" y="180">
<path fill="#88d3ef" d="M19.375 7.5h-6.875v-6.875c0-0.345-0.28-0.625-0.625-0.625h-3.75c-0.345 0-0.625 0.28-0.625 0.625v6.875h-6.875c-0.345 0-0.625 0.28-0.625 0.625v3.75c0 0.345 0.28 0.625 0.625 0.625h6.875v6.875c0 0.345 0.28 0.625 0.625 0.625h3.75c0.345 0 0.625-0.28 0.625-0.625v-6.875h6.875c0.345 0 0.625-0.28 0.625-0.625v-3.75c0-0.345-0.28-0.625-0.625-0.625z"></path>
</svg>
<svg id="icon_minus" width="20" height="20" viewBox="0 0 20 20" x="360" y="180">
<path fill="#88d3ef" d="M0 8.125v3.75c0 0.345 0.28 0.625 0.625 0.625h18.75c0.345 0 0.625-0.28 0.625-0.625v-3.75c0-0.345-0.28-0.625-0.625-0.625h-18.75c-0.345 0-0.625 0.28-0.625 0.625z"></path>
</svg>
<svg id="icon_cross" width="20" height="20" viewBox="0 0 20 20" x="396" y="180">
<path fill="#88d3ef" d="M19.818 16.068c-0-0-0-0-0-0l-6.067-6.067 6.067-6.067c0-0 0-0 0-0 0.065-0.065 0.113-0.142 0.143-0.223 0.083-0.222 0.036-0.482-0.143-0.661l-2.866-2.866c-0.179-0.179-0.438-0.226-0.661-0.143-0.081 0.030-0.158 0.077-0.223 0.143 0 0-0 0-0 0l-6.067 6.067-6.067-6.067c-0-0-0-0-0-0-0.065-0.065-0.142-0.113-0.223-0.143-0.222-0.083-0.482-0.036-0.661 0.143l-2.866 2.866c-0.179 0.179-0.226 0.439-0.143 0.661 0.030 0.081 0.078 0.158 0.143 0.223 0 0 0 0 0 0l6.067 6.067-6.067 6.067c-0 0-0 0-0 0-0.065 0.065-0.113 0.142-0.143 0.223-0.083 0.222-0.036 0.482 0.143 0.661l2.866 2.866c0.179 0.179 0.439 0.226 0.661 0.143 0.081-0.030 0.158-0.078 0.223-0.143 0-0 0-0 0-0l6.067-6.067 6.067 6.067c0 0 0 0 0 0 0.065 0.065 0.142 0.113 0.223 0.143 0.222 0.083 0.482 0.036 0.661-0.143l2.866-2.866c0.179-0.179 0.226-0.439 0.143-0.661-0.030-0.081-0.078-0.158-0.143-0.223z"></path>
</svg>
<svg id="icon_checkmark" width="20" height="20" viewBox="0 0 20 20" x="432" y="180">
<path fill="#88d3ef" d="M16.875 2.5l-9.375 9.375-4.375-4.375-3.125 3.125 7.5 7.5 12.5-12.5z"></path>
</svg>
<svg id="icon_checkmark2" width="20" height="20" viewBox="0 0 20 20" x="468" y="180">
<path fill="#88d3ef" d="M7.762 17.924l-7.771-7.648 3.855-3.794 3.916 3.854 8.391-8.259 3.855 3.794-12.246 12.053zM2.108 10.275l5.655 5.566 10.13-9.97-1.739-1.712-8.391 8.259-3.916-3.854-1.739 1.712z"></path>
</svg>
<svg id="icon_spell-check" width="20" height="20" viewBox="0 0 20 20" x="504" y="180">
<path fill="#88d3ef" d="M2.5 5h2.5v3.75h1.25v-7.5c0-0.688-0.563-1.25-1.25-1.25h-2.5c-0.688 0-1.25 0.563-1.25 1.25v7.5h1.25v-3.75zM2.5 1.25h2.5v2.5h-2.5v-2.5zM18.75 1.25v-1.25h-3.75c-0.688 0-1.25 0.563-1.25 1.25v6.25c0 0.688 0.562 1.25 1.25 1.25h3.75v-1.25h-3.75v-6.25h3.75zM12.5 3.125v-1.875c0-0.688-0.563-1.25-1.25-1.25h-3.75v8.75h3.75c0.688 0 1.25-0.563 1.25-1.25v-1.875c0-0.688-0.172-1.25-0.859-1.25 0.688 0 0.859-0.563 0.859-1.25zM11.25 7.5h-2.5v-2.5h2.5v2.5zM11.25 3.75h-2.5v-2.5h2.5v2.5zM16.25 11.25l-8.125 8.75-4.375-5.625 1.602-1.367 2.773 2.891 6.875-5.898z"></path>
</svg>
<svg id="icon_circle-up" width="20" height="20" viewBox="0 0 20 20" x="540" y="180">
<path fill="#88d3ef" d="M0 10c0 5.523 4.477 10 10 10s10-4.477 10-10-4.477-10-10-10-10 4.477-10 10zM18.125 10c0 4.487-3.638 8.125-8.125 8.125s-8.125-3.638-8.125-8.125 3.638-8.125 8.125-8.125 8.125 3.638 8.125 8.125z"></path>
<path fill="#88d3ef" d="M13.804 13.071l1.768-1.768-5.571-5.571-5.571 5.571 1.768 1.768 3.804-3.804z"></path>
</svg>
<svg id="icon_circle-right" width="20" height="20" viewBox="0 0 20 20" x="0" y="216">
<path fill="#88d3ef" d="M10 0c-5.523 0-10 4.477-10 10s4.477 10 10 10 10-4.477 10-10-4.477-10-10-10zM10 18.125c-4.487 0-8.125-3.638-8.125-8.125s3.638-8.125 8.125-8.125 8.125 3.638 8.125 8.125-3.638 8.125-8.125 8.125z"></path>
<path fill="#88d3ef" d="M6.929 13.804l1.768 1.768 5.571-5.571-5.571-5.571-1.768 1.768 3.804 3.804z"></path>
</svg>
<svg id="icon_circle-down" width="20" height="20" viewBox="0 0 20 20" x="36" y="216">
<path fill="#88d3ef" d="M20 10c0-5.523-4.477-10-10-10s-10 4.477-10 10 4.477 10 10 10 10-4.477 10-10zM1.875 10c0-4.487 3.638-8.125 8.125-8.125s8.125 3.638 8.125 8.125-3.638 8.125-8.125 8.125-8.125-3.638-8.125-8.125z"></path>
<path fill="#88d3ef" d="M6.196 6.929l-1.768 1.768 5.571 5.571 5.571-5.571-1.768-1.768-3.804 3.804z"></path>
</svg>
<svg id="icon_scissors" width="20" height="20" viewBox="0 0 20 20" x="72" y="216">
<path fill="#88d3ef" d="M17.848 13.275c-1.302-2.035-3.537-2.931-4.99-2.001-0.126 0.080-0.241 0.172-0.347 0.273l-1.552-2.427 3.583-5.624c0.293-0.542 0.402-1.187 0.259-1.835-0.136-0.62-0.479-1.141-0.939-1.508l-0.24-0.152-4.247 6.643-4.247-6.643-0.24 0.152c-0.461 0.367-0.803 0.888-0.939 1.508-0.142 0.649-0.034 1.294 0.259 1.835l3.583 5.624-1.552 2.427c-0.106-0.101-0.221-0.193-0.347-0.273-1.454-0.93-3.688-0.035-4.99 2.001s-1.18 4.439 0.274 5.369c1.454 0.93 3.688 0.035 4.99-2.001l3.209-5.037 3.209 5.037c1.302 2.035 3.537 2.931 4.99 2.001s1.576-3.334 0.274-5.369zM4.587 15.633c-0.586 0.916-1.339 1.362-1.847 1.474-0 0-0 0-0 0-0.166 0.036-0.396 0.059-0.553-0.042-0.174-0.111-0.289-0.405-0.309-0.787-0.032-0.618 0.188-1.344 0.603-1.993 0.586-0.916 1.338-1.362 1.847-1.474 0.166-0.036 0.397-0.059 0.553 0.042 0.174 0.111 0.289 0.405 0.309 0.787 0.032 0.618-0.188 1.345-0.603 1.993zM9.375 10c-0.345 0-0.625-0.28-0.625-0.625s0.28-0.625 0.625-0.625 0.625 0.28 0.625 0.625-0.28 0.625-0.625 0.625zM16.872 16.279c-0.019 0.381-0.135 0.675-0.309 0.787-0.157 0.1-0.387 0.078-0.553 0.042 0 0 0 0-0 0-0.509-0.112-1.261-0.557-1.847-1.474-0.415-0.648-0.635-1.375-0.603-1.993 0.019-0.381 0.135-0.675 0.309-0.787 0.157-0.1 0.387-0.078 0.553-0.042 0.508 0.112 1.261 0.557 1.847 1.474 0.415 0.648 0.635 1.375 0.603 1.993z"></path>
</svg>
<svg id="icon_mail2" width="20" height="20" viewBox="0 0 20 20" x="108" y="216">
<path fill="#88d3ef" d="M16.667 0h-13.333c-1.833 0-3.334 1.5-3.334 3.334v13.332c0 1.835 1.5 3.334 3.334 3.334h13.333c1.834 0 3.333-1.499 3.333-3.334v-13.332c0-1.834-1.5-3.334-3.333-3.334zM16.667 2.5c0.156 0 0.304 0.046 0.43 0.124l-7.097 5.867-7.097-5.867c0.127-0.078 0.274-0.124 0.43-0.124h13.333zM3.334 17.5c-0.038 0-0.075-0.003-0.111-0.008l4.407-6.113-0.571-0.571-4.558 4.558v-11.936l7.5 9.070 7.5-9.070v11.936l-4.558-4.558-0.571 0.571 4.407 6.113c-0.036 0.005-0.073 0.008-0.111 0.008h-13.333z"></path>
</svg>
<svg id="icon_mail3" width="20" height="20" viewBox="0 0 20 20" x="144" y="216">
<path fill="#88d3ef" d="M16.667 0h-13.333c-1.833 0-3.334 1.5-3.334 3.334v13.332c0 1.835 1.5 3.334 3.334 3.334h13.333c1.834 0 3.333-1.499 3.333-3.334v-13.332c0-1.834-1.5-3.334-3.333-3.334zM3.567 17.317l-1.509-1.509 5-5 0.571 0.571-4.063 5.938zM2.996 3.879l0.571-0.571 6.433 5.183 6.433-5.183 0.571 0.571-7.004 8.254-7.004-8.254zM16.433 17.317l-4.063-5.938 0.571-0.571 5 5-1.509 1.509z"></path>
</svg>
<svg id="icon_mail4" width="20" height="20" viewBox="0 0 20 20" x="180" y="216">
<path fill="#88d3ef" d="M10 0c-5.523 0-10 4.477-10 10s4.477 10 10 10 10-4.477 10-10-4.477-10-10-10zM5 5h10c0.178 0 0.352 0.038 0.511 0.111l-5.511 6.429-5.511-6.429c0.159-0.072 0.332-0.111 0.511-0.111zM3.75 13.75v-7.5c0-0.026 0.001-0.052 0.003-0.078l3.665 4.276-3.625 3.625c-0.028-0.104-0.043-0.213-0.043-0.323zM15 15h-10c-0.11 0-0.219-0.015-0.323-0.043l3.557-3.557 1.766 2.061 1.766-2.060 3.557 3.557c-0.104 0.028-0.213 0.043-0.323 0.043zM16.25 13.75c0 0.11-0.015 0.219-0.043 0.323l-3.625-3.625 3.665-4.276c0.002 0.026 0.003 0.052 0.003 0.078v7.5z"></path>
</svg>
<svg id="icon_whatsapp" width="20" height="20" viewBox="0 0 20 20" x="216" y="216">
<path fill="#88d3ef" d="M17.051 2.906c-1.871-1.875-4.359-2.906-7.012-2.906-5.461 0-9.906 4.445-9.906 9.91 0 1.746 0.457 3.453 1.324 4.953l-1.406 5.137 5.254-1.379c1.449 0.789 3.078 1.207 4.734 1.207h0.004c0 0 0 0 0 0 5.461 0 9.91-4.445 9.91-9.91 0-2.648-1.031-5.137-2.902-7.012zM10.043 18.156v0c-1.48 0-2.93-0.398-4.195-1.148l-0.301-0.18-3.117 0.816 0.832-3.039-0.195-0.313c-0.828-1.309-1.262-2.824-1.262-4.383 0-4.543 3.695-8.238 8.242-8.238 2.199 0 4.27 0.859 5.824 2.414 1.555 1.559 2.41 3.625 2.41 5.828-0.004 4.547-3.699 8.242-8.238 8.242zM14.559 11.984c-0.246-0.125-1.465-0.723-1.691-0.805s-0.391-0.125-0.559 0.125c-0.164 0.246-0.641 0.805-0.785 0.973-0.145 0.164-0.289 0.188-0.535 0.063s-1.047-0.387-1.992-1.23c-0.734-0.656-1.234-1.469-1.379-1.715s-0.016-0.383 0.109-0.504c0.113-0.109 0.246-0.289 0.371-0.434s0.164-0.246 0.246-0.414c0.082-0.164 0.043-0.309-0.020-0.434s-0.559-1.344-0.762-1.84c-0.199-0.484-0.406-0.418-0.559-0.426-0.145-0.008-0.309-0.008-0.473-0.008s-0.434 0.063-0.66 0.309c-0.227 0.246-0.867 0.848-0.867 2.066s0.887 2.395 1.012 2.563c0.125 0.164 1.746 2.668 4.23 3.738 0.59 0.254 1.051 0.406 1.41 0.523 0.594 0.188 1.133 0.16 1.559 0.098 0.477-0.070 1.465-0.598 1.672-1.176s0.207-1.074 0.145-1.176c-0.059-0.109-0.223-0.172-0.473-0.297z"></path>
</svg>
<svg id="icon_libreoffice" width="20" height="20" viewBox="0 0 20 20" x="252" y="216">
<path fill="#88d3ef" d="M10.442 0.442c-0.243-0.243-0.723-0.442-1.067-0.442h-7.5c-0.344 0-0.625 0.281-0.625 0.625v18.75c0 0.344 0.281 0.625 0.625 0.625h15c0.344 0 0.625-0.281 0.625-0.625v-11.25c0-0.344-0.199-0.824-0.442-1.067l-6.616-6.616zM16.25 18.75h-13.75v-17.5h6.859c0.057 0.009 0.164 0.054 0.211 0.087l6.593 6.593c0.034 0.047 0.078 0.154 0.087 0.211v10.609zM16.875 0h-3.75c-0.344 0-0.426 0.199-0.183 0.442l4.116 4.116c0.243 0.243 0.442 0.161 0.442-0.183v-3.75c0-0.344-0.281-0.625-0.625-0.625z"></path>
</svg>
</svg>
